<?xml version="1.0" encoding="utf-8"?>
<svg version="1.1" xmlns:xlink="http://www.w3.org/1999/xlink" width="9px" height="11px" xmlns="http://www.w3.org/2000/svg">
  <g transform="matrix(1 0 0 1 -360 -459 )">
    <path d="M 8.84536082474222 5.24649298597194  C 8.94845360824741 5.31997327989308  9 5.40447561790251  9 5.5  C 9 5.59552438209749  8.94845360824741 5.68002672010692  8.84536082474222 5.75350701402806  L 1.63917525773206 10.8897795591182  C 1.53608247422682 10.9632598530394  1.41752577319585 11  1.28350515463922 11  C 1.14948453608247 11  1.03092783505156 10.9632598530394  0.927835051546367 10.8897795591182  L 0.154639175257785 10.3386773547094  C 0.0515463917525949 10.2651970607883  0 10.1806947227789  0 10.0851703406814  C 0 9.98964595858382  0.0515463917525949 9.90514362057445  0.154639175257785 9.83166332665331  L 6.23195876288662 5.5  L 0.154639175257785 1.16833667334669  C 0.0515463917525949 1.09485637942555  0 1.01035404141618  0 0.914829659318627  C 0 0.819305277221133  0.0515463917525949 0.734802939211704  0.154639175257785 0.661322645290625  L 0.927835051546367 0.11022044088179  C 1.03092783505156 0.0367401469605966  1.14948453608247 0  1.28350515463922 0  C 1.41752577319585 0  1.53608247422682 0.0367401469605966  1.63917525773206 0.11022044088179  L 8.84536082474222 5.24649298597194  Z " fill-rule="nonzero" fill="#bcbcbc" stroke="none" transform="matrix(1 0 0 1 360 459 )" />
  </g>
</svg>