<?xml version="1.0" encoding="utf-8"?>
<svg version="1.1" xmlns:xlink="http://www.w3.org/1999/xlink" width="9px" height="14px" xmlns="http://www.w3.org/2000/svg">
  <g transform="matrix(1 0 0 1 -355 -364 )">
    <path d="M 6.0908203125 6.31640625  C 6.5302734375 5.86067708333337  6.75 5.3107638888888  6.75 4.66666666666663  C 6.75 4.0225694444444  6.5302734375 3.47265625  6.0908203125 3.01692708333337  C 5.6513671875 2.56119791666663  5.12109375000006 2.33333333333337  4.5 2.33333333333337  C 3.87890624999994 2.33333333333337  3.3486328125 2.56119791666663  2.9091796875 3.01692708333337  C 2.4697265625 3.47265625  2.25 4.0225694444444  2.25 4.66666666666663  C 2.25 5.3107638888888  2.4697265625 5.86067708333337  2.9091796875 6.31640625  C 3.3486328125 6.77213541666663  3.87890624999994 7  4.5 7  C 5.12109375000006 7  5.6513671875 6.77213541666663  6.0908203125 6.31640625  Z M 7.681640625 1.3671875  C 8.560546875 2.27864583333337  9 3.37847222222217  9 4.66666666666663  C 9 5.3289930555556  8.9033203125 5.8728298611112  8.7099609375 6.29817708333337  L 5.5107421875 13.3528645833334  C 5.41699218749994 13.5533854166666  5.27783203125 13.7113715277778  5.09326171875 13.8268229166666  C 4.90869140625 13.9422743055556  4.7109375 14  4.5 14  C 4.2890625 14  4.09130859375 13.9422743055556  3.90673828125 13.8268229166666  C 3.72216796875 13.7113715277778  3.5859375 13.5533854166666  3.498046875 13.3528645833334  L 0.2900390625 6.29817708333337  C 0.0966796875 5.8728298611112  0 5.3289930555556  0 4.66666666666663  C 0 3.37847222222217  0.439453125 2.27864583333337  1.318359375 1.3671875  C 2.197265625 0.455729166666629  3.25781250000006 0  4.5 0  C 5.74218749999994 0  6.802734375 0.455729166666629  7.681640625 1.3671875  Z " fill-rule="nonzero" fill="#bcbcbc" stroke="none" transform="matrix(1 0 0 1 355 364 )" />
  </g>
</svg>