<svg t="1583497449693" class="icon" viewBox="0 0 1024 1024" version="1.1" xmlns="http://www.w3.org/2000/svg" p-id="14438" width="200" height="200"><path d="M1024 977.408C1024 977.472 1024 977.536 1024 977.536 1024 1003.2 1002.496 1024 976 1024L48 1024C21.504 1024 0 1003.2 0 977.536 0 977.536 0 977.472 0 977.408L0 977.408C0 977.408 0 808.192 127.808 746.624 208.64 707.712 177.536 739.264 276.8 699.456 376.064 659.648 399.616 645.76 399.616 645.76L400.576 554.048C400.576 554.048 363.392 526.528 351.808 440.192 328.512 446.72 320.832 413.76 319.488 392.768 318.208 372.544 306.048 309.248 334.4 314.944 328.576 272.704 324.416 234.624 326.464 214.4 333.568 143.552 404.096 69.504 512.768 64.128 640.512 69.504 691.136 143.488 698.24 214.336 700.352 234.56 695.808 272.704 689.984 314.88 718.336 309.248 706.048 372.416 704.64 392.704 703.36 413.632 695.552 446.464 672.32 440 660.736 526.272 623.552 553.6 623.552 553.6L624.384 644.864C624.384 644.864 647.936 657.856 747.2 697.664 846.464 737.472 815.36 707.712 896.192 746.624 1024 808.192 1024 977.408 1024 977.408L1024 977.408Z" p-id="14439" fill="#707070"></path></svg>