<?xml version="1.0" encoding="utf-8"?>
<svg version="1.1" xmlns:xlink="http://www.w3.org/1999/xlink" width="13px" height="13px" xmlns="http://www.w3.org/2000/svg">
  <g transform="matrix(1 0 0 1 -418 -20 )">
    <path d="M 12.6936026936027 9.71717171717169  C 12.8978675645343 9.92143658810329  13 10.1694725028059  13 10.4612794612795  C 13 10.7530864197531  12.8978675645343 11.0011223344556  12.6936026936027 11.2053872053872  L 11.2053872053871 12.6936026936027  C 11.0011223344557 12.8978675645342  10.7530864197531 13  10.4612794612794 13  C 10.1694725028059 13  9.92143658810323 12.8978675645342  9.71717171717171 12.6936026936027  L 6.5 9.47643097643099  L 3.28282828282829 12.6936026936027  C 3.07856341189677 12.8978675645342  2.83052749719417 13  2.53872053872055 13  C 2.24691358024683 13  1.99887766554434 12.8978675645342  1.79461279461287 12.6936026936027  L 0.306397306397287 11.2053872053872  C 0.102132435465762 11.0011223344556  0 10.7530864197531  0 10.4612794612795  C 0 10.1694725028059  0.102132435465762 9.92143658810329  0.306397306397287 9.71717171717169  L 3.52356902356905 6.5  L 0.306397306397287 3.2828282828283  C 0.102132435465762 3.07856341189671  0 2.83052749719415  0 2.53872053872054  C 0 2.24691358024693  0.102132435465762 1.99887766554436  0.306397306397287 1.79461279461277  L 1.79461279461287 0.306397306397315  C 1.99887766554434 0.102132435465794  2.24691358024683 0  2.53872053872055 0  C 2.83052749719417 0  3.07856341189677 0.102132435465794  3.28282828282829 0.306397306397315  L 6.5 3.52356902356901  L 9.71717171717171 0.306397306397315  C 9.92143658810323 0.102132435465794  10.1694725028059 0  10.4612794612794 0  C 10.7530864197531 0  11.0011223344557 0.102132435465794  11.2053872053871 0.306397306397315  L 12.6936026936027 1.79461279461277  C 12.8978675645343 1.99887766554436  13 2.24691358024693  13 2.53872053872054  C 13 2.83052749719415  12.8978675645343 3.07856341189671  12.6936026936027 3.2828282828283  L 9.47643097643095 6.5  L 12.6936026936027 9.71717171717169  Z " fill-rule="nonzero" fill="#999999" stroke="none" transform="matrix(1 0 0 1 418 20 )" />
  </g>
</svg>