<svg t="1583497182767" class="icon" viewBox="0 0 1024 1024" version="1.1" xmlns="http://www.w3.org/2000/svg" p-id="12075" width="200" height="200"><path d="M512.512 919.552c-224.768 0-407.04-182.272-407.04-407.04s182.272-407.04 407.04-407.04 407.04 182.272 407.04 407.04-182.272 407.04-407.04 407.04z m0-54.272c194.56 0 352.768-157.696 352.768-352.768s-157.696-352.768-352.768-352.768S159.744 317.44 159.744 512.512 317.952 865.28 512.512 865.28z" p-id="12076" fill="#707070"></path><path d="M523.264 313.856c36.864 0 67.072 9.728 90.112 30.72 23.04 20.48 34.816 48.128 34.816 82.944 0 28.16-7.68 52.224-22.016 70.656-5.12 6.144-21.504 21.504-48.64 45.056-10.752 9.216-18.944 19.456-24.576 30.208-6.144 11.776-9.216 24.576-9.216 38.4v9.728H481.792v-9.728c0-21.504 3.584-39.936 11.776-54.784 7.68-16.384 29.696-39.936 65.536-71.68l9.728-10.752c10.24-13.312 16.384-27.136 16.384-41.984 0-20.48-5.632-35.84-16.896-47.616-11.776-11.776-28.16-17.408-49.152-17.408-26.112 0-45.056 8.192-56.832 25.088-10.24 13.824-15.872 33.792-15.872 58.88H385.536c0-41.984 12.288-75.264 36.352-99.328 24.576-26.112 58.368-38.4 101.376-38.4z m-10.752 338.432c12.288 0 22.528 3.584 30.72 11.776 8.192 7.68 12.288 17.408 12.288 29.696s-4.608 22.016-12.8 30.208c-8.192 7.68-18.432 11.776-30.208 11.776-11.776 0-22.016-4.096-30.208-12.288-8.192-8.192-12.288-17.92-12.288-29.696 0-12.288 4.096-22.016 12.288-29.696 8.192-8.192 18.944-11.776 30.208-11.776z" p-id="12077" fill="#707070"></path></svg>