<svg t="1583497322690" class="icon" viewBox="0 0 1024 1024" version="1.1" xmlns="http://www.w3.org/2000/svg" p-id="13523" width="200" height="200"><path d="M353.605 633.313a37.239 37.239 0 0 0 10.942 26.347c14.552 14.552 38.138 14.565 52.707 0.029l94.955-94.955 94.95 94.955a37.242 37.242 0 0 0 52.707-0.029c14.552-14.553 14.565-38.138 0.029-52.707l-94.955-94.95 94.955-94.955a37.242 37.242 0 0 0-0.03-52.708c-14.553-14.547-38.138-14.56-52.707-0.03l-94.95 94.955-94.955-94.955a37.255 37.255 0 0 0-26.36-10.911 37.238 37.238 0 0 0-26.347 10.941c-14.548 14.553-14.561 38.139-0.031 52.708l94.955 94.955-94.955 94.95a37.263 37.263 0 0 0-10.91 26.36z" p-id="13524" fill="#707070"></path><path d="M512.209 64.527c-246.753 0-447.476 200.723-447.476 447.476 0 117.684 45.659 224.897 120.192 304.858l56.206-49.059c-63.089-66.819-101.82-156.87-101.82-255.799 0-205.614 167.284-372.897 372.897-372.897S885.101 306.39 885.101 512.003s-167.28 372.893-372.893 372.893c-79.194 0-152.699-24.82-213.153-67.084l-57.578 50.257c75.218 57.327 169.066 91.405 270.731 91.405 246.752 0 447.47-200.719 447.47-447.47 0.002-246.754-200.717-447.477-447.469-447.477z" p-id="13525" fill="#707070"></path></svg>