<?xml version="1.0" encoding="utf-8"?>
<svg version="1.1" xmlns:xlink="http://www.w3.org/1999/xlink" width="26px" height="17px" xmlns="http://www.w3.org/2000/svg">
  <g transform="matrix(1 0 0 1 -315 -119 )">
    <path d="M 25.849537037037 7.9362808842653  C 25.9498456790124 8.08365843086258  26 8.2531426094495  26 8.44473342002601  C 26 8.65106198526223  25.9498456790124 8.82791504117903  25.849537037037 8.97529258777634  L 20.0717592592593 16.8010403120936  C 19.9112654320988 17.0073688773299  19.735725308642 17.0515821413091  19.5451388888889 16.9336801040312  C 19.3545524691358 16.8010403120936  19.2592592592593 16.5873428695275  19.2592592592593 16.2925877763329  L 19.2592592592593 11.3407022106632  L 0.481481481481467 11.3407022106632  C 0.341049382716051 11.3407022106632  0.225694444444457 11.2743823146944  0.135416666666686 11.1417425227568  C 0.0451388888888573 11.0091027308192  0 10.8396185522323  0 10.6332899869961  L 0 6.3888166449935  C 0 6.18248807975723  0.0451388888888573 6.01300390117035  0.135416666666686 5.88036410923277  C 0.225694444444457 5.74772431729519  0.341049382716051 5.68140442132642  0.481481481481467 6  L 19.2592592592593 6  L 19.2592592592593 0.729518855656707  C 19.2592592592593 0.420026007802349  19.3545524691358 0.206328565236262  19.5451388888889 0.0884265279584042  C 19.735725308642 -0.0294755093194539  19.9112654320988 0.00736887732985281  20.0717592592593 0.198959687906381  L 25.849537037037 7.9362808842653  Z " fill-rule="nonzero" fill="#cccccc" stroke="none" transform="matrix(1 0 0 1 315 119 )" />
  </g>
</svg>