<svg t="1583395460933" class="icon" viewBox="0 0 1024 1024" version="1.1" xmlns="http://www.w3.org/2000/svg" p-id="2769" width="200" height="200"><path d="M767.888034 384.15996v-127.968008a255.936016 255.936016 0 1 0-511.872032 0v127.968008a127.968008 127.968008 0 0 0-127.968008 127.968008v383.904024a127.968008 127.968008 0 0 0 127.968008 127.968008h511.872032a127.968008 127.968008 0 0 0 127.968008-127.968008v-383.904024a127.968008 127.968008 0 0 0-127.968008-127.968008z m-383.904024-127.968008a127.968008 127.968008 0 1 1 255.936016 0v127.968008H383.98401z m383.904024 639.84004H256.016002v-383.904024h511.872032z" fill="#8F9BB2" p-id="2770"></path></svg>