<?xml version="1.0" encoding="utf-8"?>
<svg version="1.1" xmlns:xlink="http://www.w3.org/1999/xlink" width="300px" height="50px" xmlns="http://www.w3.org/2000/svg">
  <g transform="matrix(1 0 0 1 -28 -174 )">
    <path d="M 29 177  A 2 2 0 0 1 31 175 L 325 175  A 2 2 0 0 1 327 177 L 327 221  A 2 2 0 0 1 325 223 L 31 223  A 2 2 0 0 1 29 221 L 29 177  Z " fill-rule="nonzero" fill="#ffffff" stroke="none" fill-opacity="0.498039215686275" />
    <path d="M 28.5 177  A 2.5 2.5 0 0 1 31 174.5 L 325 174.5  A 2.5 2.5 0 0 1 327.5 177 L 327.5 221  A 2.5 2.5 0 0 1 325 223.5 L 31 223.5  A 2.5 2.5 0 0 1 28.5 221 L 28.5 177  Z " stroke-width="1" stroke="#cccccc" fill="none" stroke-opacity="0.698039215686274" />
  </g>
</svg>