<?xml version="1.0" encoding="utf-8"?>
<svg version="1.1" xmlns:xlink="http://www.w3.org/1999/xlink" width="24px" height="26px" xmlns="http://www.w3.org/2000/svg">
  <g transform="matrix(1 0 0 1 -7 -364 )">
    <path d="M 18.59375 10.8333333333333  C 18.59375 11.1267361111111  18.4947916666667 11.3806423611111  18.296875 11.5950520833333  L 11.703125 18.73828125  C 11.5052083333333 18.9526909722222  11.2708333333333 19.0598958333333  11 19.0598958333333  C 10.7291666666667 19.0598958333333  10.4947916666667 18.9526909722222  10.296875 18.73828125  L 5.703125 13.76171875  C 5.50520833333333 13.5473090277778  5.40625 13.2934027777778  5.40625 13  C 5.40625 12.7065972222222  5.50520833333333 12.4526909722222  5.703125 12.23828125  L 7.296875 10.51171875  C 7.49479166666667 10.2973090277778  7.72916666666667 10.1901041666667  8 10.1901041666667  C 8.27083333333333 10.1901041666667  8.50520833333333 10.2973090277778  8.703125 10.51171875  L 11 13  L 15.296875 8.34505208333333  C 15.4947916666667 8.13064236111111  15.7291666666667 8.0234375  16 8.0234375  C 16.2708333333333 8.0234375  16.5052083333333 8.13064236111111  16.703125 8.34505208333333  L 18.296875 10.0716145833333  C 18.4947916666667 10.2860243055556  18.59375 10.5399305555556  18.59375 10.8333333333333  Z M 19.359375 17.62109375  C 20.1197916666667 16.2105034722222  20.5 14.6701388888889  20.5 13  C 20.5 11.3298611111111  20.1197916666667 9.78949652777778  19.359375 8.37890625  C 18.5989583333333 6.96831597222222  17.5677083333333 5.85112847222222  16.265625 5.02734375  C 14.9635416666667 4.20355902777778  13.5416666666667 3.79166666666667  12 3.79166666666667  C 10.4583333333333 3.79166666666667  9.03645833333333 4.20355902777778  7.734375 5.02734375  C 6.43229166666667 5.85112847222222  5.40104166666667 6.96831597222222  4.640625 8.37890625  C 3.88020833333333 9.78949652777778  3.5 11.3298611111111  3.5 13  C 3.5 14.6701388888889  3.88020833333333 16.2105034722222  4.640625 17.62109375  C 5.40104166666667 19.0316840277778  6.43229166666667 20.1488715277778  7.734375 20.97265625  C 9.03645833333333 21.7964409722222  10.4583333333333 22.2083333333333  12 22.2083333333333  C 13.5416666666667 22.2083333333333  14.9635416666667 21.7964409722222  16.265625 20.97265625  C 17.5677083333333 20.1488715277778  18.5989583333333 19.0316840277778  19.359375 17.62109375  Z M 22.390625 6.474609375  C 23.4635416666667 8.46636284722222  24 10.6414930555556  24 13  C 24 15.3585069444444  23.4635416666667 17.5336371527778  22.390625 19.525390625  C 21.3177083333333 21.5171440972222  19.8619791666667 23.0941840277778  18.0234375 24.2565104166667  C 16.1848958333333 25.4188368055556  14.1770833333333 26  12 26  C 9.82291666666667 26  7.81510416666667 25.4188368055556  5.9765625 24.2565104166667  C 4.13802083333333 23.0941840277778  2.68229166666667 21.5171440972222  1.609375 19.525390625  C 0.536458333333333 17.5336371527778  0 15.3585069444444  0 13  C 0 10.6414930555556  0.536458333333333 8.46636284722222  1.609375 6.474609375  C 2.68229166666667 4.48285590277778  4.13802083333333 2.90581597222222  5.9765625 1.74348958333333  C 7.81510416666667 0.581163194444442  9.82291666666667 0  12 0  C 14.1770833333333 0  16.1848958333333 0.581163194444442  18.0234375 1.74348958333333  C 19.8619791666667 2.90581597222222  21.3177083333333 4.48285590277778  22.390625 6.474609375  Z " fill-rule="nonzero" fill="#a8b9fd" stroke="none" transform="matrix(1 0 0 1 7 364 )" />
  </g>
</svg>