<svg t="1583483351418" class="icon" viewBox="0 0 1024 1024" version="1.1" xmlns="http://www.w3.org/2000/svg" p-id="5194" width="200" height="200"><path d="M898.048 65.024h-769.536c-33.792 0-61.44 27.648-61.44 61.44V896c0 33.792 27.648 61.44 61.44 61.44h769.536c33.792 0 61.44-27.648 61.44-61.44v-769.536c0-33.792-27.648-61.44-61.44-61.44z m-113.152 476.672h-240.64v231.936c0 16.896-13.824 30.72-30.72 30.72s-30.72-13.824-30.72-30.72v-231.936h-238.08c-16.896 0-30.72-13.824-30.72-30.72s13.824-30.72 30.72-30.72h238.08v-246.784c0-16.896 13.824-30.72 30.72-30.72s30.72 13.824 30.72 30.72v246.784h240.64c16.896 0 30.72 13.824 30.72 30.72s-13.824 30.72-30.72 30.72z" p-id="5195"></path></svg>