<svg t="1583483693766" class="icon" viewBox="0 0 1024 1024" version="1.1" xmlns="http://www.w3.org/2000/svg" p-id="6660" width="200" height="200"><path d="M318.155278 695.179253a53.750942 53.750942 0 0 0 76.019919 0l588.529367-588.444368a53.921942 53.921942 0 0 0 0-76.189918l-0.169999-0.17a53.750942 53.750942 0 0 0-75.933919 0.17l-588.529368 588.445368a53.921942 53.921942 0 0 0 0 76.189918z" p-id="6661"></path><path d="M970.077578 431.202537h-0.256a53.665942 53.665942 0 0 0-53.664942 53.665942v431.372537H107.843504V107.672884l431.372537 0.171a53.750942 53.750942 0 0 0 53.665942-53.835942v-0.17A53.665942 53.665942 0 0 0 539.132041 0.17H53.752562A53.323943 53.323943 0 0 0 0.08662 53.750942L0.00162 970.418958A53.323943 53.323943 0 0 0 53.666562 1023.9989h916.753016a53.409943 53.409943 0 0 0 53.494942-53.750942V484.953479a53.750942 53.750942 0 0 0-53.836942-53.664942z" p-id="6662"></path></svg>