<svg t="1583483402196" class="icon" viewBox="0 0 1024 1024" version="1.1" xmlns="http://www.w3.org/2000/svg" p-id="5926" width="200" height="200"><path d="M114.31784297 170.65614853v682.68770294c0 12.5932683 10.60485751 23.19812583 23.19812583 23.19812581h748.9680624c12.5932683 0 23.19812583-10.60485751 23.19812583-23.19812581V170.65614853c0-12.5932683-10.60485751-23.19812583-23.19812583-23.19812581H137.5159688c-12.5932683 0-23.19812583 10.60485751-23.19812583 23.19812581zM820.2036717 810.26161778H203.7963283c-12.5932683 0-23.19812583-10.60485751-23.19812583-23.19812583v-430.82233678c0-12.5932683 10.60485751-23.19812583 23.19812583-23.19812584h616.4073434c12.5932683 0 23.19812583 10.60485751 23.19812583 23.19812584v430.82233678c0 12.5932683-10.60485751 23.19812583-23.19812583 23.19812583zM594.85044939 571.65232355h33.14017975c12.5932683 0 23.19812583-10.60485751 23.19812583-23.19812582v-6.62803595c0-12.5932683 10.60485751-23.19812583 23.19812583-23.19812583h72.90839545c12.5932683 0 23.19812583-10.60485751 23.19812583-23.19812582s-10.60485751-23.19812583-23.19812583-23.19812583h-72.90839545c-12.5932683 0-23.19812583-10.60485751-23.19812583-23.19812583v-6.62803595c0-12.5932683-10.60485751-23.19812583-23.19812583-23.19812583H594.85044939c-12.5932683 0-23.19812583 10.60485751-23.19812584 23.19812583v6.62803595c0 12.5932683-10.60485751 23.19812583-23.19812582 23.19812583H289.96079565c-12.5932683 0-23.19812583 10.60485751-23.19812582 23.19812583s10.60485751 23.19812583 23.19812582 23.19812582h258.49340208c12.5932683 0 23.19812583 10.60485751 23.19812582 23.19812583v6.62803595c0 12.5932683 10.60485751 23.19812583 23.19812584 23.19812582z m-185.58500663 19.88410786h-33.14017974c-12.5932683 0-23.19812583 10.60485751-23.19812584 23.19812583v6.62803594c0 12.5932683-10.60485751 23.19812583-23.19812582 23.19812584h-53.02428761c-12.5932683 0-23.19812583 10.60485751-23.19812583 23.19812581s10.60485751 23.19812583 23.19812583 23.19812584h53.02428761c12.5932683 0 23.19812583 10.60485751 23.19812582 23.19812583v13.25607189c0 12.5932683 10.60485751 23.19812583 23.19812584 23.19812583h33.14017974c12.5932683 0 23.19812583-10.60485751 23.19812583-23.19812583v-6.62803594c0-12.5932683 10.60485751-23.19812583 23.19812583-23.19812584h285.00554588c12.5932683 0 23.19812583-10.60485751 23.19812583-23.19812581s-10.60485751-23.19812583-23.19812583-23.19812583H455.66169442c-12.5932683 0-23.19812583-10.60485751-23.19812583-23.19812583v-13.2560719c0-12.5932683-10.60485751-23.19812583-23.19812583-23.19812583z" fill="#CC8524" p-id="5927"></path></svg>