<?xml version="1.0" standalone="no"?><!DOCTYPE svg PUBLIC "-//W3C//DTD SVG 1.1//EN" "http://www.w3.org/Graphics/SVG/1.1/DTD/svg11.dtd"><svg t="1585311077079" class="icon" viewBox="0 0 1024 1024" version="1.1" xmlns="http://www.w3.org/2000/svg" p-id="2839" xmlns:xlink="http://www.w3.org/1999/xlink" width="200" height="200"><defs><style type="text/css"></style></defs><path d="M982.677 497.333c0 72.181-58.517 130.698-130.732 130.698H166.073c-72.181 0-130.667-58.517-130.667-130.698 0-72.181 58.486-130.667 130.667-130.667h685.872c72.215 0 130.732 58.485 130.732 130.667z" fill="#46B89C" p-id="2840"></path><path d="M279.392 455.743h16.718l4.435-6.92c0.719-1.199 1.528-1.798 2.488-1.798 0.958 0 3.325 1.528 7.071 4.584 3.744 3.087 5.602 5.154 5.602 6.232s-0.958 1.619-2.875 1.619h-33.438l0.358 6.081c0 0.63-0.358 1.169-1.078 1.619-0.72 0.419-2.069 0.929-4.016 1.499-1.946 0.539-3.417 0.837-4.374 0.837-0.539 0-0.809-0.568-0.809-1.677v-8.359h-20.555v6.201c0 0.809-0.181 1.318-0.539 1.559-0.359 0.238-1.229 0.599-2.577 1.078s-2.786 0.869-4.314 1.198c5.992 3.267 8.958 5.604 8.958 7.042 0 0.568-0.419 0.837-1.319 0.837l-1.528-0.12c-1.049 0-2.517 0.9-4.435 2.757a129.344 129.344 0 0 1-7.04 6.323c3.655 3.655 5.933 8.479 6.862 14.41 0.929 5.934 1.376 11.537 1.376 16.781 0 5.271-0.448 10.605-1.318 16.089-0.869 5.453-3.294 9.199-7.221 11.206-3.954 2.038-6.47 3.056-7.61 3.056-0.688 0-1.228-0.72-1.528-2.156-0.568-2.308-1.617-4.136-3.116-5.483-1.528-1.35-4.435-2.878-8.718-4.555l0.359-2.127c6.292 1.169 10.457 1.769 12.555 1.769 2.067 0 3.506-0.421 4.283-1.318 0.811-0.869 1.47-3.268 2.038-7.161 0.539-3.896 0.839-7.433 0.839-10.638 0-3.176-0.06-5.692-0.12-7.521-6.051 6.922-15.551 14.622-28.435 23.072l-1.437-1.797c12.344-10.518 21.751-21.725 28.195-33.589-0.481-1.918-1.35-3.835-2.637-5.722-5.334 3.804-13.063 7.969-23.192 12.404l-1.047-2.127c8.419-5.664 15.13-10.936 20.074-15.792-3.356-3.984-8.089-8.149-14.232-12.553l0.958-2.127c7.103 4.044 12.735 7.61 16.96 10.635 2.786-3.265 5.751-7.101 8.838-11.475-0.149-0.33-0.181-0.779-0.12-1.318 0.24-2.637 0.36-5.573 0.36-8.838h-24.838c-2.069 0-3.746 0.238-5.036 0.717l-2.846-5.034c1.648 0.39 3.657 0.599 5.964 0.599h26.756v-10.156c0-2.637-0.12-5.543-0.36-8.72 4.076 0.779 7.312 1.619 9.708 2.517 2.367 0.869 3.566 1.559 3.566 2.069 0 0.539-1.02 1.107-3.087 1.737v12.553h20.555v-10.755c0-2.637-0.12-5.544-0.361-8.72 9.139 1.978 13.724 3.537 13.724 4.644 0 0.57-1.14 1.289-3.445 2.158v12.674z m-1.8 41.59c-1.107 12.194-4.223 22.021-9.256 29.453-5.065 7.46-13.905 15.041-26.489 22.771l-1.318-2.037c9.41-7.313 16.15-14.683 20.196-22.112 4.074-7.401 6.531-16.75 7.43-28.075h-13.994c-1.677 0-3.385 0.238-5.152 0.719l-2.367-4.795c1.677 0.419 3.655 0.599 5.962 0.599h15.789c0.24-4.615 0.361-8.898 0.361-12.824 0-3.954-0.061-7.491-0.121-10.575 4.764 0.628 8.15 1.227 10.157 1.826 1.978 0.599 2.966 1.138 2.966 1.559 0 0.45-0.508 0.989-1.528 1.677-1.049 0.69-1.588 2.368-1.617 5.094-0.06 2.697-0.27 7.132-0.659 13.243h17.798l4.194-6.441c0.719-1.109 1.438-1.677 2.127-1.677 1.29 0 3.595 1.528 6.951 4.552 3.326 3.027 5.005 5.005 5.005 5.962 0 0.72-0.96 1.081-2.847 1.081h-27.865c2.546 10.366 6.533 18.845 11.896 25.466 5.392 6.593 12.854 12.045 22.411 16.361l-0.359 2.156a25.37 25.37 0 0 0-3.597-0.238c-4.613 0-8.209 1.348-10.755 4.045-0.72 0.717-1.259 1.077-1.648 1.077-0.899 0-3.505-2.846-7.851-8.599-4.343-5.723-7.61-11.805-9.858-18.217-2.216-6.413-3.535-13.753-3.924-22.052h-2.038z m5.484-27.717c5.094 1.829 9.018 3.446 11.775 4.824 2.757 1.408 4.136 3.386 4.136 5.931 0 2.069-0.63 3.927-1.857 5.604-1.229 1.677-2.608 2.517-4.076 2.517s-2.428-1.109-2.907-3.356c-0.958-3.744-2.098-6.562-3.356-8.479a31.409 31.409 0 0 0-4.314-5.152l0.599-1.889zM340.695 451.308h-7.281c-1.768 0-3.147 0.211-4.196 0.599l-2.517-4.644c1.29 0.39 2.878 0.599 4.795 0.599h45.303l4.523-5.871c0.719-0.96 1.318-1.439 1.799-1.439 1.107 0 3.176 1.439 6.172 4.254 2.967 2.817 4.463 4.735 4.463 5.664 0 0.568-0.719 0.837-2.156 0.837h-15.88v55.702l10.755-2.637 0.84 2.276-11.595 4.435v25.678c9.798-7.551 17.586-16.09 23.431-25.558-6.143-12.435-9.68-28.883-10.637-49.378h-2.637c-2.156 0-3.835 0.301-5.034 0.84l-2.127-4.405c1.648 0.39 3.655 0.601 5.962 0.601h29.035l3.236-4.316c0.958-1.258 1.858-1.917 2.755-1.917 0.869 0 2.907 1.229 6.143 3.715 3.236 2.459 4.854 4.105 4.854 4.944 0 0.84-0.688 1.439-2.036 1.737-1.35 0.33-2.308 0.96-2.878 1.858-0.57 0.931-1.049 2.367-1.438 4.376-3.415 16.239-8.6 29.723-15.52 40.389 7.969 10.816 17.827 18.246 29.633 22.232l-0.24 2.007a50.53 50.53 0 0 0-4.435-0.209c-4.944 0-8.628 1.348-11.116 4.045-0.869 0.958-1.559 1.438-2.007 1.438-0.33 0-0.69-0.151-1.08-0.48-0.419-0.33-1.737-1.678-4.014-4.135a104.358 104.358 0 0 1-6.682-7.88 86.452 86.452 0 0 1-6.054-8.779c-7.069 8.539-16.059 15.82-26.876 21.874 0.151 1.437 0.241 2.546 0.241 3.354 0 0.78-0.359 1.468-1.078 2.01-0.72 0.567-2.098 1.227-4.136 1.978-2.038 0.748-3.445 1.138-4.225 1.138-0.659 0-0.958-0.569-0.958-1.679v-31.67c-13.544 5.183-22.353 8.688-26.427 10.518-4.044 1.826-6.713 3.506-8 5.033-0.39 0.479-0.78 0.72-1.138 0.72-0.361 0-0.659-0.181-0.96-0.481-0.27-0.329-0.958-1.677-2.096-4.073a178.65 178.65 0 0 1-3.565-8.241c6.53-0.868 12.223-1.857 17.079-2.995v-64.064z m25.108 0h-15.792v16.511h15.792v-16.511z m-15.792 20.197v18.186h15.792v-18.186h-15.792z m0 21.751v19.957l15.792-3.807v-16.15h-15.792z m54.143 8.869c5.185-10.457 8.929-23.881 11.237-40.3H392.2c2.486 16.66 6.47 30.084 11.954 40.3zM477.324 510.005l-18.067 9.199c-3.268 1.588-5.515 2.906-6.742 3.955-1.229 1.019-2.006 1.528-2.278 1.528-0.27 0-0.508-0.12-0.717-0.358-0.18-0.24-0.779-1.229-1.799-3.027-0.987-1.797-2.007-3.896-3.025-6.292 5.002-0.39 15.669-2.697 32.03-6.922l0.598 1.917z m-5.993-17.468l4.795-43.476h-21.994c-1.528 0-2.967 0.271-4.314 0.811l-3.116-4.526c1.769 0.151 3.746 0.241 5.994 0.241h23.311l2.967-3.356c0.479-0.479 0.929-0.719 1.316-0.719 0.421 0 1.499 0.719 3.296 2.098 1.797 1.408 3.417 2.666 4.824 3.835 1.438 1.138 2.158 1.917 2.158 2.336 0 0.69-1.739 1.889-5.245 3.566l-5.152 39.191h0.837l2.278-2.368c0.39-0.479 0.809-0.717 1.198-0.717s1.918 0.898 4.584 2.666c2.666 1.797 4.016 2.996 4.016 3.535 0 0.72-1.35 1.68-4.076 2.878-1.348 16.178-2.727 27.115-4.165 32.807-1.437 5.693-4.194 9.62-8.299 11.775-4.105 2.128-6.802 3.208-8.089 3.208-0.63 0-1.02-0.481-1.199-1.439-0.3-2.367-0.811-4.165-1.53-5.303-0.717-1.169-2.096-2.308-4.134-3.417-2.038-1.106-5.513-2.576-10.457-4.403l0.359-2.038c7.822 1.918 13.274 2.876 16.421 2.876 3.145 0 5.243-0.897 6.292-2.635 1.018-1.769 2.096-6.323 3.234-13.693 1.109-7.372 1.86-14.112 2.248-20.255h-17.678l-1.918 2.996c-0.539 0.869-1.107 1.319-1.677 1.319-1.258 0-4.583-1.588-9.918-4.793 1.829-1.02 3.056-2.069 3.655-3.118 0.599-1.018 0.96-2.457 1.14-4.283l2.396-23.431c0.238-2.218 0.359-5.303 0.359-9.199 8.419 1.978 12.644 3.506 12.644 4.555 0 0.688-1.258 1.617-3.804 2.726l-3.116 29.752h9.559z m49.353-49.109c5.572 15.221 17.976 26.188 37.184 32.87l-0.24 1.918c-3.657 0-6.533 0.24-8.54 0.779-2.037 0.508-3.477 1.288-4.315 2.336-0.838 1.018-1.438 1.528-1.858 1.528-1.106 0-3.684-1.946-7.699-5.902s-7.521-8.66-10.457-14.172a56.301 56.301 0 0 1-5.963-17.678c-7.253 17.618-18.609 31.28-34.071 40.988l-1.317-1.559c6.86-7.069 12.493-14.441 16.898-22.112 4.435-7.639 8.089-16.749 10.936-27.355 6.294 2.218 10.071 3.715 11.3 4.405 1.227 0.719 1.857 1.319 1.857 1.797-0.001 0.81-1.23 1.529-3.715 2.157z m0.238 93.574c4.225-10.276 8.659-26.366 13.274-48.269 9.407 3.025 14.111 5.183 14.111 6.441 0 0.719-1.049 1.29-3.115 1.677-1.35 0.33-2.428 1.588-3.236 3.835-4.134 11.056-9.709 23.161-16.721 36.315h10.758l4.885-6.802c0.719-1.049 1.588-1.557 2.577-1.557 0.988 0 3.115 1.557 6.352 4.673 3.205 3.087 4.822 5.064 4.822 5.902 0 0.839-0.746 1.258-2.276 1.258h-58.19c-2.158 0-3.835 0.271-5.034 0.84l-2.127-4.913c1.648 0.418 3.655 0.599 5.962 0.599h27.958z m3.835-54.383l3.956-5.243c0.538-0.719 1.108-1.078 1.647-1.078 0.568 0 2.156 1.288 4.793 3.896 2.638 2.577 3.956 4.194 3.956 4.824 0 0.628-0.6 0.958-1.798 0.958h-36.348c-2.158 0-3.806 0.27-5.004 0.839l-2.156-4.795c1.677 0.421 3.655 0.599 5.962 0.599h24.992z m-27.599 9.559c5.094 8.21 8.301 13.932 9.677 17.168 1.35 3.236 2.038 6.263 2.038 9.079 0 2.817-0.869 5.363-2.577 7.581-1.707 2.247-3.386 3.356-4.974 3.356-1.198 0-1.797-0.988-1.797-2.998 0-8.447-0.241-14.47-0.72-18.096-0.45-3.626-1.617-8.78-3.445-15.491l1.798-0.599z m12.524-3.445c4.707 5.483 8.212 10.306 10.46 14.441 2.279 4.165 3.417 7.461 3.417 9.918 0 2.485-0.748 4.824-2.276 7.011-1.499 2.188-3.147 3.266-4.886 3.266-0.72 0-1.17-0.181-1.38-0.57-0.209-0.419-0.3-1.078-0.3-2.036 0-7.011-0.629-12.884-1.917-17.648a83.66 83.66 0 0 0-4.884-13.544l1.766-0.838zM607.271 507.13c-6.563 9.646-11.24 16.987-14.118 22.053-2.878 5.063-5.308 10.096-7.285 15.101-0.332 0.899-0.688 1.318-1.078 1.318-0.423 0-0.779-0.149-1.14-0.479-0.361-0.301-1.29-1.35-2.82-3.147-1.496-1.798-3.026-3.984-4.557-6.532 2.969-4.464 4.437-8.898 4.437-13.361v-38.145h-10.523c-1.435 0-2.753 0.211-3.951 0.599l-3.209-5.363c1.348 0.39 3.026 0.599 5.005 0.599h12.202l3.595-4.913c0.481-0.719 1.021-1.078 1.68-1.078 0.63 0 2.607 1.109 5.904 3.296 3.3 2.187 4.979 3.655 4.979 4.343 0 0.719-1.861 1.857-5.519 3.356v36.585l14.599-15.912 1.799 1.68z m-31.687-67.417c7.016 2.577 12.232 5.065 15.707 7.551 3.479 2.457 5.22 5.064 5.22 7.82 0 2.757-0.871 5.214-2.579 7.341-1.708 2.158-3.449 3.236-5.216 3.236-0.539 0-1.169-0.45-1.861-1.318-0.66-0.869-1.107-1.978-1.348-3.354-0.9-4.136-2.219-7.582-4.019-10.339-1.795-2.726-4.195-5.693-7.223-8.898l1.319-2.039z m67.299 48.421h7.762l5.399-7.042c0.87-1.138 1.616-1.677 2.275-1.677 0.631 0 1.473 0.419 2.492 1.258 1.045 0.809 2.546 2.158 4.553 3.985 1.978 1.828 3.358 3.207 4.138 4.076 0.751 0.869 1.111 1.648 1.111 2.336 0 0.659-0.87 0.989-2.612 0.989h-25.118v43.505h11.481l5.033-7.401c0.635-0.958 1.294-1.437 1.953-1.437 0.688 0 1.857 0.568 3.475 1.677 1.65 1.109 3.541 2.548 5.727 4.314 2.218 1.737 3.628 2.967 4.316 3.626 0.688 0.688 1.02 1.259 1.02 1.737 0 0.96-0.871 1.438-2.637 1.438h-73.054c-1.203 0-2.31 0.149-3.33 0.479l-2.04-4.914c1.111 0.33 2.372 0.479 3.811 0.479h9.922v-52.944c0-3.176-0.062-5.991-0.24-8.479a61.818 61.818 0 0 1 8.454 3.176c2.666 1.229 4.283 2.038 4.827 2.399 0.567 0.358 0.837 0.717 0.837 1.138 0 0.688-1.318 1.858-3.955 3.446v51.265h13.877v-83.656h-24.641c-1.17 0-2.306 0.181-3.326 0.481l-2.04-4.764c1.111 0.299 2.401 0.479 3.84 0.479h47.932l5.395-7.43c0.783-1.02 1.472-1.528 2.011-1.528 0.958 0 3.536 1.588 7.732 4.824 4.167 3.234 6.266 5.363 6.266 6.381 0 1.049-0.747 1.557-2.276 1.557h-30.368v36.227zM705.086 454.065h-12.92c-2.156 0-3.84 0.27-5.038 0.84l-2.127-5.363c1.65 0.39 3.657 0.568 5.967 0.568h27.847l4.437-5.842c0.779-0.958 1.472-1.439 2.04-1.439 0.539 0 2.487 1.439 5.784 4.316 3.296 2.846 4.976 4.733 4.976 5.602 0 0.9-0.899 1.318-2.637 1.318h-16.516c-3.089 9.738-6.327 18.097-9.686 25.108v2.038h11.722l3.358-4.435c0.39-0.479 0.746-0.719 1.078-0.719 0.539 0 2.28 1.229 5.129 3.657 2.874 2.425 4.316 3.833 4.316 4.223 0 0.57-1.294 1.528-3.839 2.877v30.233c0 3.894 0.062 6.622 0.12 8.118l0.24 4.314c0 0.631-0.419 1.229-1.318 1.8-0.871 0.539-2.248 1.138-4.109 1.797-1.887 0.629-3.268 0.93-4.134 0.93-0.48 0-0.722-0.539-0.722-1.648v-8.391h-11.842v12.556c0 0.628-0.087 1.106-0.298 1.378-0.179 0.27-0.9 0.718-2.128 1.317-1.26 0.601-2.55 1.08-3.959 1.438-1.406 0.36-2.396 0.539-2.998 0.539-0.597 0-0.838-0.33-0.779-0.958 0.419-3.835 0.601-8.72 0.601-14.711v-29.514c-3.508 5.183-7.853 10.667-13.011 16.509l-2.036-1.557c11.631-17.378 19.124-36.343 22.482-56.899z m2.127 66.457h11.842v-35.865h-11.842v35.865z m50.365-6.472l4.403-6.2c0.481-0.811 1.049-1.201 1.68-1.201 0.63 0 2.521 1.47 5.605 4.376 3.118 2.904 4.677 4.733 4.677 5.481 0 0.751-0.692 1.141-2.04 1.141h-34.414c-2.156 0-3.835 0.27-5.033 0.837l-2.16-5.033c1.679 0.421 3.656 0.599 5.995 0.599h21.287z m6.8-22.232l4.32-40.748h-26.08c-1.529 0-2.939 0.298-4.316 0.837l-3.089-5.243c1.438 0.3 3.417 0.481 5.967 0.481h27.038l3.445-5.036c0.572-0.869 1.082-1.316 1.56-1.316 0.331 0 1.712 0.869 4.195 2.575 2.459 1.708 4.321 3.087 5.548 4.136 1.231 1.018 1.857 1.737 1.857 2.158 0 0.688-1.915 2.187-5.722 4.403l-4.922 37.752h4.2l3.085-4.403c0.572-0.72 1.111-1.078 1.621-1.078 0.511 0 1.979 0.748 4.379 2.276l5.245 3.565c1.107 0.809 1.68 1.528 1.68 2.156 0 0.659-1.68 1.829-5.009 3.597-1.526 16.568-2.969 27.925-4.316 34.065-1.348 6.114-4.586 10.397-9.682 12.825-5.096 2.456-8.306 3.654-9.565 3.654-0.809 0-1.319-0.628-1.556-1.917-0.39-1.979-1.049-3.506-1.919-4.584-0.871-1.078-2.401-2.098-4.528-3.056-2.156-0.96-5.726-2.188-10.64-3.715l1.286-2.727c9.026 2.066 14.901 3.085 17.659 3.085 2.757 0 4.614-0.479 5.605-1.437 0.986-0.932 1.828-2.608 2.454-4.944 0.635-2.337 1.443-6.982 2.401-13.935a280.5 280.5 0 0 0 2.035-19.713H747.65l-2.276 3.116c-0.419 0.539-0.962 0.837-1.621 0.837-0.688 0-2.036-0.45-4.076-1.378-2.007-0.929-3.748-1.827-5.188-2.695 1.589-1.198 2.671-2.278 3.21-3.296 0.567-0.989 0.958-2.548 1.198-4.704l2.16-21.393c0.24-2.457 0.36-4.555 0.36-6.203 0-1.677-0.033-2.996-0.12-3.956 1.916 0.241 4.466 0.929 7.642 2.098 3.209 1.138 4.798 2.067 4.798 2.726 0 0.69-0.991 1.619-2.998 2.817l-2.969 28.313h16.608z" fill="#FFFFFF" p-id="2841"></path></svg>