<?xml version="1.0" standalone="no"?><!DOCTYPE svg PUBLIC "-//W3C//DTD SVG 1.1//EN" "http://www.w3.org/Graphics/SVG/1.1/DTD/svg11.dtd"><svg t="1585310959954" class="icon" viewBox="0 0 1024 1024" version="1.1" xmlns="http://www.w3.org/2000/svg" p-id="1346" xmlns:xlink="http://www.w3.org/1999/xlink" width="200" height="200"><defs><style type="text/css"></style></defs><path d="M516.529231 776.270769c32.098462-33.28 49.230769-76.996923 48.246154-123.273846-0.984615-46.08-20.283077-89.009231-53.956923-120.910769-69.513846-65.772308-179.987692-63.212308-246.153847 5.710769-32.098462 33.28-49.230769 77.193846-48.246153 123.273846s20.283077 89.009231 53.956923 120.910769c32.492308 30.72 75.224615 47.655385 120.123077 47.655385 48.246154 0 92.947692-19.101538 126.030769-53.366154zM313.107692 583.68c20.48-21.070769 47.852308-32.886154 77.587693-32.886154 27.766154 0 53.956923 10.436923 74.043077 29.341539 20.676923 19.495385 32.492308 46.08 33.083076 74.24 0.590769 28.356923-9.846154 55.138462-29.538461 75.618461-40.763077 42.338462-108.898462 43.913846-151.630769 3.544616-20.676923-19.495385-32.492308-45.883077-33.083077-74.24-0.787692-28.16 9.846154-55.138462 29.538461-75.618462z" fill="" p-id="1347"></path><path d="M966.695385 47.458462c-21.070769-20.086154-54.153846-43.126154-91.372308-38.006154-22.843077 3.150769-36.430769 15.36-36.824615 15.753846l-53.169231 47.852308c-5.513846 4.923077-13.587692 5.710769-20.283077 1.96923-33.870769-19.495385-76.603077-13.587692-103.778462 14.572308-26.781538 27.766154-31.113846 69.710769-10.830769 102.203077 4.332308 6.695385 3.347692 15.556923-2.166154 21.267692l-99.446154 103.187693c-70.104615-32.098462-147.495385-41.944615-223.901538-28.75077-79.950769 13.784615-152.024615 51.987692-208.344615 110.473846-69.710769 72.270769-106.929231 167.384615-104.566154 267.618462 2.363077 100.233846 43.913846 193.772308 117.16923 262.892308 40.172308 38.006154 87.236923 66.166154 140.209231 83.692307 3.347692 1.181538 6.892308 1.772308 10.633846 1.772308 7.089231 0 13.784615-2.166154 19.495385-6.498461 8.861538-6.498462 13.784615-16.541538 13.390769-27.372308-0.393846-13.981538-9.452308-26.190769-22.449231-30.72-43.126154-14.572308-81.92-37.809231-115.003076-69.12-60.258462-56.910769-94.523077-133.907692-96.295385-216.418462-1.969231-82.510769 28.750769-160.689231 86.252308-220.356923 44.110769-45.686154 100.430769-76.603077 162.658461-89.206154 60.849231-12.209231 123.470769-6.498462 180.775385 16.738462 0.787692 0.196923 1.378462 0.590769 2.166154 0.984615l26.978461 15.36c13.193846 7.483077 29.735385 5.12 40.369231-5.710769l151.630769-157.341538c6.104615-6.498462 9.452308-14.769231 9.255385-23.827693-0.196923-8.861538-3.938462-17.132308-10.436923-23.236923l-18.51077-17.526154c-3.347692-3.150769-5.316923-7.483077-5.513846-12.20923-0.196923-4.726154 1.575385-9.058462 4.923077-12.406154 6.695385-7.089231 17.92-7.286154 25.009231-0.590769l18.904615 17.723076c13.193846 12.406154 34.067692 12.012308 46.67077-0.984615L853.070769 96.492308c0.393846-0.393846 0.787692-0.984615 1.378462-1.378462 1.772308-1.969231 11.027692-12.012308 25.993846-12.996923 13.193846-0.984615 27.372308 5.12 42.141538 18.116923 15.950769 13.981538 24.221538 28.16 24.418462 42.338462 0.393846 17.329231-12.012308 29.735385-12.209231 29.932307L660.283077 457.452308c-10.24 10.633846-12.209231 27.175385-4.529231 39.975384l16.541539 27.766154c0.393846 0.590769 0.590769 0.984615 0.787692 1.575385 26.190769 55.729231 35.052308 117.366154 25.403077 178.215384-9.846154 62.424615-38.203077 119.532308-82.313846 165.218462-27.175385 28.16-59.273846 50.806154-95.31077 67.150769-12.209231 5.513846-19.692308 17.723077-19.495384 30.916923v0.393846c0.196923 11.224615 6.104615 21.464615 15.556923 27.372308 9.452308 5.907692 21.070769 6.695385 31.113846 2.166154 43.913846-19.889231 83.101538-47.458462 116.578462-82.116923 54.153846-56.123077 88.812308-126.227692 100.430769-202.830769 11.421538-74.830769 0-150.252308-32.689231-218.19077-3.150769-6.498462-1.772308-14.375385 3.347692-19.692307L1011.396923 189.046154l0.196923-0.196923c0.590769-0.590769 12.8-14.375385 12.8-39.384616-0.590769-39.384615-31.704615-77.193846-57.698461-102.006153z" fill="" p-id="1348"></path></svg>