<?xml version="1.0" standalone="no"?><!DOCTYPE svg PUBLIC "-//W3C//DTD SVG 1.1//EN" "http://www.w3.org/Graphics/SVG/1.1/DTD/svg11.dtd"><svg t="1585313907065" class="icon" viewBox="0 0 1024 1024" version="1.1" xmlns="http://www.w3.org/2000/svg" p-id="3002" xmlns:xlink="http://www.w3.org/1999/xlink" width="200" height="200"><defs><style type="text/css"></style></defs><path d="M512 572.8c-48 0-88 40-88 88 0 41.6 28.8 76.8 67.2 84.8v75.2c0 11.2 8 19.2 19.2 19.2h3.2c11.2 0 19.2-8 19.2-19.2v-75.2c38.4-9.6 67.2-44.8 67.2-84.8 0-48-40-88-88-88z m0 134.4c-25.6 0-46.4-20.8-46.4-46.4s20.8-46.4 46.4-46.4 46.4 20.8 46.4 46.4-20.8 46.4-46.4 46.4z" fill="#3E3A39" p-id="3003"></path><path d="M780.8 448h-3.2v-118.4c0-145.6-118.4-264-264-264s-264 118.4-264 264V448h-4.8C188.8 448 144 492.8 144 547.2v313.6c0 54.4 44.8 99.2 99.2 99.2h537.6c54.4 0 99.2-44.8 99.2-99.2V547.2c0-54.4-44.8-99.2-99.2-99.2z m-484.8-118.4c0-120 97.6-216 216-216s216 97.6 216 216V448h-432v-118.4zM832 860.8c0 28.8-22.4 51.2-51.2 51.2H243.2c-28.8 0-51.2-22.4-51.2-51.2V547.2c0-28.8 22.4-51.2 51.2-51.2h537.6c28.8 0 51.2 22.4 51.2 51.2v313.6z" fill="#3E3A39" p-id="3004"></path></svg>