<?xml version="1.0" standalone="no"?><!DOCTYPE svg PUBLIC "-//W3C//DTD SVG 1.1//EN" "http://www.w3.org/Graphics/SVG/1.1/DTD/svg11.dtd"><svg t="1585310654354" class="icon" viewBox="0 0 1024 1024" version="1.1" xmlns="http://www.w3.org/2000/svg" p-id="577" xmlns:xlink="http://www.w3.org/1999/xlink" width="200" height="200"><defs><style type="text/css"></style></defs><path d="M695.28125 77.1875h-366.5625a92.53125 92.53125 0 0 0-92.53125 92.4375v686.0625a92.53125 92.53125 0 0 0 92.53125 92.4375h366.5625a92.53125 92.53125 0 0 0 92.53125-92.4375V169.625a92.53125 92.53125 0 0 0-92.53125-92.4375z m-366.5625 28.96875h366.5625a63.5625 63.5625 0 0 1 63.46875 63.46875V222.3125H265.25v-52.6875a63.5625 63.5625 0 0 1 63.46875-63.46875zM758.75 251.375v493.5H265.25V251.375z m-63.46875 667.6875h-366.5625a63.46875 63.46875 0 0 1-63.46875-63.375v-81.75h493.5v81.75a63.46875 63.46875 0 0 1-63.46875 63.375z" fill="#888888" p-id="578"></path><path d="M519.21875 846.5m-58.03125 0a58.03125 58.03125 0 1 0 116.0625 0 58.03125 58.03125 0 1 0-116.0625 0Z" fill="#888888" p-id="579"></path></svg>