<svg t="1583324753395" class="icon" viewBox="0 0 1026 1024" version="1.1" xmlns="http://www.w3.org/2000/svg" p-id="1186" width="200" height="200"><path d="M963.086652 212.044394 62.417562 212.044394c-34.472116 0-62.417585 27.945469-62.417585 62.417585l0 436.632475c0 34.474163 27.945469 62.417585 62.417585 62.417585l900.66909 0c34.473139 0 62.415538-27.944446 62.415538-62.417585L1025.50219 274.461979C1025.50219 239.989863 997.557745 212.044394 963.086652 212.044394zM182.415563 432.019411 164.826976 432.019411c-5.756097 0-10.233062-1.703805-13.430894-5.116531-3.412726-3.622504-5.116531-8.099469-5.116531-13.430894 0-5.326309 1.703805-9.698896 5.116531-13.111622 3.197832-3.40761 7.674796-5.116531 13.430894-5.116531l17.588587 0 0-39.333844c0-6.180769 1.703805-11.192923 5.116531-15.030321 3.40761-3.40761 7.780197-5.221932 13.111622-5.436826 5.326309 0.214894 9.698896 1.918699 13.111622 5.116531 3.622504 3.837398 5.436826 8.953929 5.436826 15.349593l0 39.333844 18.547425 0c5.541203 0 9.91379 1.599428 13.111622 4.797259 3.40761 3.62762 5.116531 8.104585 5.116531 13.430894 0 5.331425-1.708921 9.702989-5.116531 13.111622-3.412726 3.62762-7.78429 5.436826-13.111622 5.436826l-18.547425 0 0 48.927339c4.476965-4.26207 10.018168-5.646604 16.628726-4.157693 4.476965 1.069355 8.099469 3.837398 10.872628 8.314363 2.768043 4.906753 3.837398 9.702989 3.197832 14.390755-0.214894 4.267187-3.307326 8.104585-9.274224 11.512195-5.756097 3.412726-12.900821 7.03523-21.425985 10.872628l0 83.783195c0 16.414855-6.395664 28.780487-19.186991 37.09485-7.250124 4.263094-16.309454 5.965875-27.182083 5.116531-14.285355-0.213871-23.663956-3.518127-28.14092-9.91379-2.348488-4.267187-3.092431-8.953929-2.238994-14.07046 2.768043-11.726066 10.553357-16.309454 23.344684-13.751189 2.982938 0.209778 4.901637 0.209778 5.756097 0 2.768043 0.639566 5.116531 0 7.03523-1.918699 2.768043-2.772136 4.047176-6.825452 3.837398-12.151761l0-59.479673c-6.185886 2.134617-11.512195 3.946892-15.989159 5.436826-5.54632 1.708921-10.342556 1.49505-14.390755-0.639566-4.267187-2.128477-7.144724-5.860475-8.634658-11.192923-1.494027-4.901637-1.279133-9.593496 0.639566-14.07046 2.128477-4.476965 5.861498-7.459902 11.192923-8.953929 7.884574-2.768043 16.949021-6.076392 27.182083-9.91379L182.415563 432.019411zM284.746183 609.818863c-10.447956 23.873734-20.146852 36.561707-29.100782 38.054711-4.267187 0.209778-8.744151-1.069355-13.430894-3.837398-4.906753-3.411703-7.78429-7.465019-8.634658-12.151761-0.854461-4.906753 0.320295-9.702989 3.518127-14.390755 14.07046-20.466124 23.024389-42.211381 26.861788-65.23577 1.064238-15.559371 3.518127-24.943089 7.355525-28.14092 3.837398-2.768043 8.419763-4.047176 13.751189-3.837398 4.901637 0.639566 9.05933 2.667759 12.472056 6.076392 4.26207 4.691859 4.686742 16.947997 1.279133 36.774555 0.639566 0.215918 1.064238 0.74906 1.279133 1.599428 0.209778 1.069355 0.639566 2.028193 1.279133 2.87856 7.884574 16.628726 18.972097 28.461215 33.257451 35.496445l0-89.858564L270.994994 513.246387c-5.54632 0-9.91379-1.599428-13.111622-4.797259-3.197832-3.40761-4.797259-7.780197-4.797259-13.111622 0-4.901637 1.599428-9.05933 4.797259-12.472056 3.40761-3.40761 7.780197-5.116531 13.111622-5.116531l161.170726 0c5.326309 0.214894 9.593496 1.708921 12.791327 4.476965 3.197832 3.412726 4.796236 7.78429 4.796236 13.111622 0 4.906753-1.599428 9.063423-4.796236 12.472056-3.197832 3.62762-7.465019 5.436826-12.791327 5.436826l-60.758806 0 0 28.460192 49.246611 0c5.326309 0.215918 9.593496 1.708921 12.791327 4.476965 3.197832 3.413749 4.797259 7.78429 4.797259 13.111622 0 4.906753-1.599428 9.063423-4.797259 12.472056-3.197832 3.62762-7.465019 5.436826-12.791327 5.436826l-49.246611 0 0 31.019481c1.064238 0 2.343371 0 3.837398 0l58.20054 0c6.180769 0.209778 11.192923 2.025123 15.029298 5.436826 3.623527 3.197832 5.542226 7.674796 5.756097 13.430894-0.213871 5.542226-1.918699 10.019191-5.116531 13.430894-4.051269 3.837398-9.273201 5.756097-15.668865 5.756097l-44.13008 0c-16.204054-0.213871-31.448246-1.388627-45.729507-3.518127C320.5619 639.558188 300.94512 628.576065 284.746183 609.818863zM295.618811 467.195561c-7.250124-0.209778-12.900821-2.87856-16.949021-7.995091-5.116531-6.605442-7.569396-13.536294-7.355525-20.786419l0-66.835198c0-6.605442 2.343371-12.257162 7.03523-16.949021 4.901637-5.116531 10.657734-7.565303 17.268292-7.355525l17.907858 0 95.29539 0c8.314363-0.209778 15.349593 2.238994 21.10569 7.355525 4.686742 4.267187 7.140631 9.91379 7.355525 16.949021l0 66.835198c0 7.465019-2.988054 14.179954-8.953929 20.146852-5.756097 5.54632-12.261255 8.423857-19.507286 8.634658L295.618811 467.195561zM401.786829 393.326157l0-3.837398c0-1.703805-0.639566-3.197832-1.918699-4.476965-1.708921-1.488911-3.307326-2.238994-4.797259-2.238994l-81.545224 0c-1.918699-0.209778-3.518127 0.429789-4.797259 1.918699-1.279133 1.708921-1.918699 3.307326-1.918699 4.797259l0 3.837398L401.786829 393.326157zM306.810711 421.146782l0 3.837398c0 1.708921 0.639566 3.307326 1.918699 4.797259 1.279133 1.279133 2.87856 1.918699 4.797259 1.918699l81.545224 0c1.918699 0 3.518127-0.744967 4.797259-2.238994 1.064238-1.488911 1.703805-2.982938 1.918699-4.476965l0-3.837398L306.810711 421.146782zM599.73211 528.914228c-4.906753-1.279133-8.744151-4.157693-11.512195-8.634658-2.772136-5.116531-3.518127-9.91379-2.238994-14.390755 1.279133-5.116531 4.583388-9.378601 9.91379-12.791327 32.617885-21.530362 57.560974-47.967478 74.829266-79.30623 1.065262-1.918699 2.344395-3.518127 3.837398-4.797259L604.848641 408.993998c-5.756097 0-10.233062-1.703805-13.430894-5.116531-3.411703-3.622504-5.116531-8.099469-5.116531-13.430894 0-5.326309 1.704828-9.698896 5.116531-13.111622 3.197832-3.40761 7.674796-5.116531 13.430894-5.116531l117.360941 0c-2.988054-13.855566-3.518127-23.024389-1.599428-27.501354 2.558265-4.26207 6.502088-7.140631 11.83249-8.634658 5.326309-1.703805 10.233062-1.279133 14.710027 1.279133 7.03523 4.052293 11.618619 15.669888 13.751189 34.856879l111.284549 0c5.542226 0 9.91379 1.599428 13.111622 4.797259 3.40761 3.62762 5.116531 8.104585 5.116531 13.430894 0 5.331425-1.708921 9.702989-5.116531 13.111622-3.411703 3.62762-7.78429 5.436826-13.111622 5.436826l-72.271 0c1.918699 1.069355 3.837398 2.348488 5.756097 3.837398 24.5133 21.535479 50.311873 50.846038 77.387531 87.940888 3.623527 5.116531 5.116531 10.023284 4.476965 14.710027-0.639566 5.116531-3.197832 9.383718-7.674796 12.791327-4.476965 2.987031-9.063423 4.052293-13.751189 3.197832-4.906753-0.849344-9.274224-3.941775-13.111622-9.273201-10.023284-13.430894-19.507286-25.367761-28.461215-35.815717-14.500249 34.111912-33.577746 62.35721-57.241702 84.742033 27.501354 17.48421 62.037938 30.699186 103.609753 39.653115 6.605442 1.704828 11.298324 4.583388 14.07046 8.634658 2.558265 4.263094 3.40761 9.060353 2.558265 14.390755-1.708921 5.756097-4.586458 9.699919-8.634658 11.83249-4.690836 2.983961-10.023284 3.837398-15.989159 2.558265-48.397267-10.446933-90.178859-28.461215-125.355009-54.04387-33.471322 22.594601-74.509994 40.078811-123.117039 52.444443-6.185886 1.704828-11.512195 1.169639-15.989159-1.599428-4.476965-2.348488-7.465019-6.185886-8.953929-11.512195-1.069355-5.54632-0.533143-10.342556 1.599428-14.390755 2.768043-4.690836 12.151761-9.063423 28.14092-13.111622 37.09485-10.446933 67.154469-22.4892 90.178859-36.136012-10.872628-11.296277-20.895913-24.727171-30.05962-40.292682-8.314363-13.216-15.349593-26.326599-21.10569-39.33282C630.111001 517.936199 610.604739 530.831904 599.73211 528.914228zM711.335931 516.122901c8.524141 12.366655 17.374716 23.024389 26.542516 31.978319 27.501354-24.728194 47.327912-55.42738 59.479673-92.097558-5.54632-5.756097-10.872628-10.872628-15.989159-15.349593-4.690836-4.047176-7.355525-8.634658-7.995091-13.751189 0-4.901637 1.704828-9.378601 5.116531-13.430894 1.488911-2.128477 3.197832-3.622504 5.116531-4.476965l-83.143629 0c2.558265 2.133593 4.263094 4.906753 5.116531 8.314363 1.065262 5.331425 0 10.662851-3.197832 15.989159-5.969968 8.953929-11.83249 17.377786-17.588587 25.263383C693.318579 483.295238 702.168131 502.482229 711.335931 516.122901z" p-id="1187"></path></svg>