<svg t="1583484903013" class="icon" viewBox="0 0 1024 1024" version="1.1" xmlns="http://www.w3.org/2000/svg" p-id="7407" width="200" height="200"><path d="M0 0h1024v1024H0z" fill="#FFFFFF" p-id="7408"></path><path d="M768 841.955556c11.377778-45.511111 51.2-73.955556 96.711111-73.955556 56.888889 0 102.4 45.511111 102.4 102.4s-45.511111 96.711111-102.4 96.711111c-45.511111 0-85.333333-34.133333-96.711111-73.955555h-159.288889c-11.377778 39.822222-51.2 73.955556-96.711111 73.955555-56.888889 0-102.4-45.511111-102.4-102.4 0-45.511111 34.133333-85.333333 73.955556-96.711111v-159.288889c-39.822222-11.377778-73.955556-51.2-73.955556-96.711111s34.133333-85.333333 73.955556-96.711111V256c-34.133333-11.377778-62.577778-39.822222-68.266667-73.955556H256c-11.377778 45.511111-51.2 79.644444-96.711111 79.644445-56.888889 0-102.4-45.511111-102.4-102.4S102.4 56.888889 159.288889 56.888889c45.511111 0 85.333333 34.133333 96.711111 73.955555h159.288889C426.666667 91.022222 466.488889 56.888889 512 56.888889c56.888889 0 102.4 45.511111 102.4 102.4 0 45.511111-34.133333 85.333333-73.955556 96.711111v159.288889c45.511111 11.377778 73.955556 51.2 73.955556 96.711111s-34.133333 85.333333-73.955556 96.711111v159.288889c34.133333 11.377778 62.577778 34.133333 73.955556 73.955556h153.6z m96.711111-580.266667c-56.888889 0-102.4-45.511111-102.4-102.4S807.822222 56.888889 864.711111 56.888889s102.4 45.511111 102.4 102.4-45.511111 102.4-102.4 102.4zM159.288889 614.4C102.4 614.4 56.888889 568.888889 56.888889 512s45.511111-102.4 102.4-102.4S261.688889 455.111111 261.688889 512s-45.511111 102.4-102.4 102.4z m705.422222 0c-56.888889 0-102.4-45.511111-102.4-102.4s45.511111-102.4 102.4-102.4S967.111111 455.111111 967.111111 512s-45.511111 102.4-102.4 102.4zM159.288889 967.111111c-56.888889 0-102.4-45.511111-102.4-102.4s45.511111-102.4 102.4-102.4 102.4 45.511111 102.4 102.4S216.177778 967.111111 159.288889 967.111111z" fill="#D4D8DB" p-id="7409"></path></svg>